<?xml version="1.0" encoding="utf-8" standalone="no"?>
<!DOCTYPE svg PUBLIC "-//W3C//DTD SVG 1.1//EN"
  "http://www.w3.org/Graphics/SVG/1.1/DTD/svg11.dtd">
<svg xmlns:xlink="http://www.w3.org/1999/xlink" width="460.8pt" height="345.6pt" viewBox="0 0 460.8 345.6" xmlns="http://www.w3.org/2000/svg" version="1.1">
 <metadata>
  <rdf:RDF xmlns:dc="http://purl.org/dc/elements/1.1/" xmlns:cc="http://creativecommons.org/ns#" xmlns:rdf="http://www.w3.org/1999/02/22-rdf-syntax-ns#">
   <cc:Work>
    <dc:type rdf:resource="http://purl.org/dc/dcmitype/StillImage"/>
    <dc:date>2025-11-02T21:01:46.501294</dc:date>
    <dc:format>image/svg+xml</dc:format>
    <dc:creator>
     <cc:Agent>
      <dc:title>Matplotlib v3.10.7, https://matplotlib.org/</dc:title>
     </cc:Agent>
    </dc:creator>
   </cc:Work>
  </rdf:RDF>
 </metadata>
 <defs>
  <style type="text/css">*{stroke-linejoin: round; stroke-linecap: butt}</style>
 </defs>
 <g id="figure_1">
  <g id="patch_1">
   <path d="M 0 345.6 
L 460.8 345.6 
L 460.8 0 
L 0 0 
z
" style="fill: #ffffff"/>
  </g>
  <g id="axes_1">
   <g id="patch_2">
    <path d="M 55.98 297.9 
L 442.218415 297.9 
L 442.218415 12.96 
L 55.98 12.96 
z
" style="fill: #ffffff"/>
   </g>
   <g id="matplotlib.axis_1">
    <g id="xtick_1">
     <g id="text_1">
      <!-- 0.00 -->
      <g style="fill: #262626" transform="translate(50.690842 315.273594) scale(0.11 -0.11)">
       <defs>
        <path id="ArialMT-30" d="M 266 2259 
Q 266 3072 433 3567 
Q 600 4063 929 4331 
Q 1259 4600 1759 4600 
Q 2128 4600 2406 4451 
Q 2684 4303 2865 4023 
Q 3047 3744 3150 3342 
Q 3253 2941 3253 2259 
Q 3253 1453 3087 958 
Q 2922 463 2592 192 
Q 2263 -78 1759 -78 
Q 1097 -78 719 397 
Q 266 969 266 2259 
z
M 844 2259 
Q 844 1131 1108 757 
Q 1372 384 1759 384 
Q 2147 384 2411 759 
Q 2675 1134 2675 2259 
Q 2675 3391 2411 3762 
Q 2147 4134 1753 4134 
Q 1366 4134 1134 3806 
Q 844 3388 844 2259 
z
" transform="scale(0.015625)"/>
        <path id="ArialMT-2e" d="M 581 0 
L 581 641 
L 1222 641 
L 1222 0 
L 581 0 
z
" transform="scale(0.015625)"/>
       </defs>
       <use xlink:href="#ArialMT-30"/>
       <use xlink:href="#ArialMT-2e" transform="translate(55.615234 0)"/>
       <use xlink:href="#ArialMT-30" transform="translate(83.398438 0)"/>
       <use xlink:href="#ArialMT-30" transform="translate(139.013672 0)"/>
      </g>
     </g>
    </g>
    <g id="xtick_2">
     <g id="text_2">
      <!-- 0.01 -->
      <g style="fill: #262626" transform="translate(113.248356 315.273594) scale(0.11 -0.11)">
       <defs>
        <path id="ArialMT-31" d="M 2384 0 
L 1822 0 
L 1822 3584 
Q 1619 3391 1289 3197 
Q 959 3003 697 2906 
L 697 3450 
Q 1169 3672 1522 3987 
Q 1875 4303 2022 4600 
L 2384 4600 
L 2384 0 
z
" transform="scale(0.015625)"/>
       </defs>
       <use xlink:href="#ArialMT-30"/>
       <use xlink:href="#ArialMT-2e" transform="translate(55.615234 0)"/>
       <use xlink:href="#ArialMT-30" transform="translate(83.398438 0)"/>
       <use xlink:href="#ArialMT-31" transform="translate(139.013672 0)"/>
      </g>
     </g>
    </g>
    <g id="xtick_3">
     <g id="text_3">
      <!-- 0.02 -->
      <g style="fill: #262626" transform="translate(175.80587 315.273594) scale(0.11 -0.11)">
       <defs>
        <path id="ArialMT-32" d="M 3222 541 
L 3222 0 
L 194 0 
Q 188 203 259 391 
Q 375 700 629 1000 
Q 884 1300 1366 1694 
Q 2113 2306 2375 2664 
Q 2638 3022 2638 3341 
Q 2638 3675 2398 3904 
Q 2159 4134 1775 4134 
Q 1369 4134 1125 3890 
Q 881 3647 878 3216 
L 300 3275 
Q 359 3922 746 4261 
Q 1134 4600 1788 4600 
Q 2447 4600 2831 4234 
Q 3216 3869 3216 3328 
Q 3216 3053 3103 2787 
Q 2991 2522 2730 2228 
Q 2469 1934 1863 1422 
Q 1356 997 1212 845 
Q 1069 694 975 541 
L 3222 541 
z
" transform="scale(0.015625)"/>
       </defs>
       <use xlink:href="#ArialMT-30"/>
       <use xlink:href="#ArialMT-2e" transform="translate(55.615234 0)"/>
       <use xlink:href="#ArialMT-30" transform="translate(83.398438 0)"/>
       <use xlink:href="#ArialMT-32" transform="translate(139.013672 0)"/>
      </g>
     </g>
    </g>
    <g id="xtick_4">
     <g id="text_4">
      <!-- 0.03 -->
      <g style="fill: #262626" transform="translate(238.363384 315.273594) scale(0.11 -0.11)">
       <defs>
        <path id="ArialMT-33" d="M 269 1209 
L 831 1284 
Q 928 806 1161 595 
Q 1394 384 1728 384 
Q 2125 384 2398 659 
Q 2672 934 2672 1341 
Q 2672 1728 2419 1979 
Q 2166 2231 1775 2231 
Q 1616 2231 1378 2169 
L 1441 2663 
Q 1497 2656 1531 2656 
Q 1891 2656 2178 2843 
Q 2466 3031 2466 3422 
Q 2466 3731 2256 3934 
Q 2047 4138 1716 4138 
Q 1388 4138 1169 3931 
Q 950 3725 888 3313 
L 325 3413 
Q 428 3978 793 4289 
Q 1159 4600 1703 4600 
Q 2078 4600 2393 4439 
Q 2709 4278 2876 4000 
Q 3044 3722 3044 3409 
Q 3044 3113 2884 2869 
Q 2725 2625 2413 2481 
Q 2819 2388 3044 2092 
Q 3269 1797 3269 1353 
Q 3269 753 2831 336 
Q 2394 -81 1725 -81 
Q 1122 -81 723 278 
Q 325 638 269 1209 
z
" transform="scale(0.015625)"/>
       </defs>
       <use xlink:href="#ArialMT-30"/>
       <use xlink:href="#ArialMT-2e" transform="translate(55.615234 0)"/>
       <use xlink:href="#ArialMT-30" transform="translate(83.398438 0)"/>
       <use xlink:href="#ArialMT-33" transform="translate(139.013672 0)"/>
      </g>
     </g>
    </g>
    <g id="xtick_5">
     <g id="text_5">
      <!-- 0.04 -->
      <g style="fill: #262626" transform="translate(300.920898 315.273594) scale(0.11 -0.11)">
       <defs>
        <path id="ArialMT-34" d="M 2069 0 
L 2069 1097 
L 81 1097 
L 81 1613 
L 2172 4581 
L 2631 4581 
L 2631 1613 
L 3250 1613 
L 3250 1097 
L 2631 1097 
L 2631 0 
L 2069 0 
z
M 2069 1613 
L 2069 3678 
L 634 1613 
L 2069 1613 
z
" transform="scale(0.015625)"/>
       </defs>
       <use xlink:href="#ArialMT-30"/>
       <use xlink:href="#ArialMT-2e" transform="translate(55.615234 0)"/>
       <use xlink:href="#ArialMT-30" transform="translate(83.398438 0)"/>
       <use xlink:href="#ArialMT-34" transform="translate(139.013672 0)"/>
      </g>
     </g>
    </g>
    <g id="xtick_6">
     <g id="text_6">
      <!-- 0.05 -->
      <g style="fill: #262626" transform="translate(363.478412 315.273594) scale(0.11 -0.11)">
       <defs>
        <path id="ArialMT-35" d="M 266 1200 
L 856 1250 
Q 922 819 1161 601 
Q 1400 384 1738 384 
Q 2144 384 2425 690 
Q 2706 997 2706 1503 
Q 2706 1984 2436 2262 
Q 2166 2541 1728 2541 
Q 1456 2541 1237 2417 
Q 1019 2294 894 2097 
L 366 2166 
L 809 4519 
L 3088 4519 
L 3088 3981 
L 1259 3981 
L 1013 2750 
Q 1425 3038 1878 3038 
Q 2478 3038 2890 2622 
Q 3303 2206 3303 1553 
Q 3303 931 2941 478 
Q 2500 -78 1738 -78 
Q 1113 -78 717 272 
Q 322 622 266 1200 
z
" transform="scale(0.015625)"/>
       </defs>
       <use xlink:href="#ArialMT-30"/>
       <use xlink:href="#ArialMT-2e" transform="translate(55.615234 0)"/>
       <use xlink:href="#ArialMT-30" transform="translate(83.398438 0)"/>
       <use xlink:href="#ArialMT-35" transform="translate(139.013672 0)"/>
      </g>
     </g>
    </g>
    <g id="xtick_7">
     <g id="text_7">
      <!-- 0.06 -->
      <g style="fill: #262626" transform="translate(426.035926 315.273594) scale(0.11 -0.11)">
       <defs>
        <path id="ArialMT-36" d="M 3184 3459 
L 2625 3416 
Q 2550 3747 2413 3897 
Q 2184 4138 1850 4138 
Q 1581 4138 1378 3988 
Q 1113 3794 959 3422 
Q 806 3050 800 2363 
Q 1003 2672 1297 2822 
Q 1591 2972 1913 2972 
Q 2475 2972 2870 2558 
Q 3266 2144 3266 1488 
Q 3266 1056 3080 686 
Q 2894 316 2569 119 
Q 2244 -78 1831 -78 
Q 1128 -78 684 439 
Q 241 956 241 2144 
Q 241 3472 731 4075 
Q 1159 4600 1884 4600 
Q 2425 4600 2770 4297 
Q 3116 3994 3184 3459 
z
M 888 1484 
Q 888 1194 1011 928 
Q 1134 663 1356 523 
Q 1578 384 1822 384 
Q 2178 384 2434 671 
Q 2691 959 2691 1453 
Q 2691 1928 2437 2201 
Q 2184 2475 1800 2475 
Q 1419 2475 1153 2201 
Q 888 1928 888 1484 
z
" transform="scale(0.015625)"/>
       </defs>
       <use xlink:href="#ArialMT-30"/>
       <use xlink:href="#ArialMT-2e" transform="translate(55.615234 0)"/>
       <use xlink:href="#ArialMT-30" transform="translate(83.398438 0)"/>
       <use xlink:href="#ArialMT-36" transform="translate(139.013672 0)"/>
      </g>
     </g>
    </g>
    <g id="text_8">
     <!-- Simulated cosine distances -->
     <g style="fill: #262626" transform="translate(176.39702 330.049219) scale(0.12 -0.12)">
      <defs>
       <path id="ArialMT-53" d="M 288 1472 
L 859 1522 
Q 900 1178 1048 958 
Q 1197 738 1509 602 
Q 1822 466 2213 466 
Q 2559 466 2825 569 
Q 3091 672 3220 851 
Q 3350 1031 3350 1244 
Q 3350 1459 3225 1620 
Q 3100 1781 2813 1891 
Q 2628 1963 1997 2114 
Q 1366 2266 1113 2400 
Q 784 2572 623 2826 
Q 463 3081 463 3397 
Q 463 3744 659 4045 
Q 856 4347 1234 4503 
Q 1613 4659 2075 4659 
Q 2584 4659 2973 4495 
Q 3363 4331 3572 4012 
Q 3781 3694 3797 3291 
L 3216 3247 
Q 3169 3681 2898 3903 
Q 2628 4125 2100 4125 
Q 1550 4125 1298 3923 
Q 1047 3722 1047 3438 
Q 1047 3191 1225 3031 
Q 1400 2872 2139 2705 
Q 2878 2538 3153 2413 
Q 3553 2228 3743 1945 
Q 3934 1663 3934 1294 
Q 3934 928 3725 604 
Q 3516 281 3123 101 
Q 2731 -78 2241 -78 
Q 1619 -78 1198 103 
Q 778 284 539 648 
Q 300 1013 288 1472 
z
" transform="scale(0.015625)"/>
       <path id="ArialMT-69" d="M 425 3934 
L 425 4581 
L 988 4581 
L 988 3934 
L 425 3934 
z
M 425 0 
L 425 3319 
L 988 3319 
L 988 0 
L 425 0 
z
" transform="scale(0.015625)"/>
       <path id="ArialMT-6d" d="M 422 0 
L 422 3319 
L 925 3319 
L 925 2853 
Q 1081 3097 1340 3245 
Q 1600 3394 1931 3394 
Q 2300 3394 2536 3241 
Q 2772 3088 2869 2813 
Q 3263 3394 3894 3394 
Q 4388 3394 4653 3120 
Q 4919 2847 4919 2278 
L 4919 0 
L 4359 0 
L 4359 2091 
Q 4359 2428 4304 2576 
Q 4250 2725 4106 2815 
Q 3963 2906 3769 2906 
Q 3419 2906 3187 2673 
Q 2956 2441 2956 1928 
L 2956 0 
L 2394 0 
L 2394 2156 
Q 2394 2531 2256 2718 
Q 2119 2906 1806 2906 
Q 1569 2906 1367 2781 
Q 1166 2656 1075 2415 
Q 984 2175 984 1722 
L 984 0 
L 422 0 
z
" transform="scale(0.015625)"/>
       <path id="ArialMT-75" d="M 2597 0 
L 2597 488 
Q 2209 -75 1544 -75 
Q 1250 -75 995 37 
Q 741 150 617 320 
Q 494 491 444 738 
Q 409 903 409 1263 
L 409 3319 
L 972 3319 
L 972 1478 
Q 972 1038 1006 884 
Q 1059 663 1231 536 
Q 1403 409 1656 409 
Q 1909 409 2131 539 
Q 2353 669 2445 892 
Q 2538 1116 2538 1541 
L 2538 3319 
L 3100 3319 
L 3100 0 
L 2597 0 
z
" transform="scale(0.015625)"/>
       <path id="ArialMT-6c" d="M 409 0 
L 409 4581 
L 972 4581 
L 972 0 
L 409 0 
z
" transform="scale(0.015625)"/>
       <path id="ArialMT-61" d="M 2588 409 
Q 2275 144 1986 34 
Q 1697 -75 1366 -75 
Q 819 -75 525 192 
Q 231 459 231 875 
Q 231 1119 342 1320 
Q 453 1522 633 1644 
Q 813 1766 1038 1828 
Q 1203 1872 1538 1913 
Q 2219 1994 2541 2106 
Q 2544 2222 2544 2253 
Q 2544 2597 2384 2738 
Q 2169 2928 1744 2928 
Q 1347 2928 1158 2789 
Q 969 2650 878 2297 
L 328 2372 
Q 403 2725 575 2942 
Q 747 3159 1072 3276 
Q 1397 3394 1825 3394 
Q 2250 3394 2515 3294 
Q 2781 3194 2906 3042 
Q 3031 2891 3081 2659 
Q 3109 2516 3109 2141 
L 3109 1391 
Q 3109 606 3145 398 
Q 3181 191 3288 0 
L 2700 0 
Q 2613 175 2588 409 
z
M 2541 1666 
Q 2234 1541 1622 1453 
Q 1275 1403 1131 1340 
Q 988 1278 909 1158 
Q 831 1038 831 891 
Q 831 666 1001 516 
Q 1172 366 1500 366 
Q 1825 366 2078 508 
Q 2331 650 2450 897 
Q 2541 1088 2541 1459 
L 2541 1666 
z
" transform="scale(0.015625)"/>
       <path id="ArialMT-74" d="M 1650 503 
L 1731 6 
Q 1494 -44 1306 -44 
Q 1000 -44 831 53 
Q 663 150 594 308 
Q 525 466 525 972 
L 525 2881 
L 113 2881 
L 113 3319 
L 525 3319 
L 525 4141 
L 1084 4478 
L 1084 3319 
L 1650 3319 
L 1650 2881 
L 1084 2881 
L 1084 941 
Q 1084 700 1114 631 
Q 1144 563 1211 522 
Q 1278 481 1403 481 
Q 1497 481 1650 503 
z
" transform="scale(0.015625)"/>
       <path id="ArialMT-65" d="M 2694 1069 
L 3275 997 
Q 3138 488 2766 206 
Q 2394 -75 1816 -75 
Q 1088 -75 661 373 
Q 234 822 234 1631 
Q 234 2469 665 2931 
Q 1097 3394 1784 3394 
Q 2450 3394 2872 2941 
Q 3294 2488 3294 1666 
Q 3294 1616 3291 1516 
L 816 1516 
Q 847 969 1125 678 
Q 1403 388 1819 388 
Q 2128 388 2347 550 
Q 2566 713 2694 1069 
z
M 847 1978 
L 2700 1978 
Q 2663 2397 2488 2606 
Q 2219 2931 1791 2931 
Q 1403 2931 1139 2672 
Q 875 2413 847 1978 
z
" transform="scale(0.015625)"/>
       <path id="ArialMT-64" d="M 2575 0 
L 2575 419 
Q 2259 -75 1647 -75 
Q 1250 -75 917 144 
Q 584 363 401 755 
Q 219 1147 219 1656 
Q 219 2153 384 2558 
Q 550 2963 881 3178 
Q 1213 3394 1622 3394 
Q 1922 3394 2156 3267 
Q 2391 3141 2538 2938 
L 2538 4581 
L 3097 4581 
L 3097 0 
L 2575 0 
z
M 797 1656 
Q 797 1019 1065 703 
Q 1334 388 1700 388 
Q 2069 388 2326 689 
Q 2584 991 2584 1609 
Q 2584 2291 2321 2609 
Q 2059 2928 1675 2928 
Q 1300 2928 1048 2622 
Q 797 2316 797 1656 
z
" transform="scale(0.015625)"/>
       <path id="ArialMT-20" transform="scale(0.015625)"/>
       <path id="ArialMT-63" d="M 2588 1216 
L 3141 1144 
Q 3050 572 2676 248 
Q 2303 -75 1759 -75 
Q 1078 -75 664 370 
Q 250 816 250 1647 
Q 250 2184 428 2587 
Q 606 2991 970 3192 
Q 1334 3394 1763 3394 
Q 2303 3394 2647 3120 
Q 2991 2847 3088 2344 
L 2541 2259 
Q 2463 2594 2264 2762 
Q 2066 2931 1784 2931 
Q 1359 2931 1093 2626 
Q 828 2322 828 1663 
Q 828 994 1084 691 
Q 1341 388 1753 388 
Q 2084 388 2306 591 
Q 2528 794 2588 1216 
z
" transform="scale(0.015625)"/>
       <path id="ArialMT-6f" d="M 213 1659 
Q 213 2581 725 3025 
Q 1153 3394 1769 3394 
Q 2453 3394 2887 2945 
Q 3322 2497 3322 1706 
Q 3322 1066 3130 698 
Q 2938 331 2570 128 
Q 2203 -75 1769 -75 
Q 1072 -75 642 372 
Q 213 819 213 1659 
z
M 791 1659 
Q 791 1022 1069 705 
Q 1347 388 1769 388 
Q 2188 388 2466 706 
Q 2744 1025 2744 1678 
Q 2744 2294 2464 2611 
Q 2184 2928 1769 2928 
Q 1347 2928 1069 2612 
Q 791 2297 791 1659 
z
" transform="scale(0.015625)"/>
       <path id="ArialMT-73" d="M 197 991 
L 753 1078 
Q 800 744 1014 566 
Q 1228 388 1613 388 
Q 2000 388 2187 545 
Q 2375 703 2375 916 
Q 2375 1106 2209 1216 
Q 2094 1291 1634 1406 
Q 1016 1563 777 1677 
Q 538 1791 414 1992 
Q 291 2194 291 2438 
Q 291 2659 392 2848 
Q 494 3038 669 3163 
Q 800 3259 1026 3326 
Q 1253 3394 1513 3394 
Q 1903 3394 2198 3281 
Q 2494 3169 2634 2976 
Q 2775 2784 2828 2463 
L 2278 2388 
Q 2241 2644 2061 2787 
Q 1881 2931 1553 2931 
Q 1166 2931 1000 2803 
Q 834 2675 834 2503 
Q 834 2394 903 2306 
Q 972 2216 1119 2156 
Q 1203 2125 1616 2013 
Q 2213 1853 2448 1751 
Q 2684 1650 2818 1456 
Q 2953 1263 2953 975 
Q 2953 694 2789 445 
Q 2625 197 2315 61 
Q 2006 -75 1616 -75 
Q 969 -75 630 194 
Q 291 463 197 991 
z
" transform="scale(0.015625)"/>
       <path id="ArialMT-6e" d="M 422 0 
L 422 3319 
L 928 3319 
L 928 2847 
Q 1294 3394 1984 3394 
Q 2284 3394 2536 3286 
Q 2788 3178 2913 3003 
Q 3038 2828 3088 2588 
Q 3119 2431 3119 2041 
L 3119 0 
L 2556 0 
L 2556 2019 
Q 2556 2363 2490 2533 
Q 2425 2703 2258 2804 
Q 2091 2906 1866 2906 
Q 1506 2906 1245 2678 
Q 984 2450 984 1813 
L 984 0 
L 422 0 
z
" transform="scale(0.015625)"/>
      </defs>
      <use xlink:href="#ArialMT-53"/>
      <use xlink:href="#ArialMT-69" transform="translate(66.699219 0)"/>
      <use xlink:href="#ArialMT-6d" transform="translate(88.916016 0)"/>
      <use xlink:href="#ArialMT-75" transform="translate(172.216797 0)"/>
      <use xlink:href="#ArialMT-6c" transform="translate(227.832031 0)"/>
      <use xlink:href="#ArialMT-61" transform="translate(250.048828 0)"/>
      <use xlink:href="#ArialMT-74" transform="translate(305.664062 0)"/>
      <use xlink:href="#ArialMT-65" transform="translate(333.447266 0)"/>
      <use xlink:href="#ArialMT-64" transform="translate(389.0625 0)"/>
      <use xlink:href="#ArialMT-20" transform="translate(444.677734 0)"/>
      <use xlink:href="#ArialMT-63" transform="translate(472.460938 0)"/>
      <use xlink:href="#ArialMT-6f" transform="translate(522.460938 0)"/>
      <use xlink:href="#ArialMT-73" transform="translate(578.076172 0)"/>
      <use xlink:href="#ArialMT-69" transform="translate(628.076172 0)"/>
      <use xlink:href="#ArialMT-6e" transform="translate(650.292969 0)"/>
      <use xlink:href="#ArialMT-65" transform="translate(705.908203 0)"/>
      <use xlink:href="#ArialMT-20" transform="translate(761.523438 0)"/>
      <use xlink:href="#ArialMT-64" transform="translate(789.306641 0)"/>
      <use xlink:href="#ArialMT-69" transform="translate(844.921875 0)"/>
      <use xlink:href="#ArialMT-73" transform="translate(867.138672 0)"/>
      <use xlink:href="#ArialMT-74" transform="translate(917.138672 0)"/>
      <use xlink:href="#ArialMT-61" transform="translate(944.921875 0)"/>
      <use xlink:href="#ArialMT-6e" transform="translate(1000.537109 0)"/>
      <use xlink:href="#ArialMT-63" transform="translate(1056.152344 0)"/>
      <use xlink:href="#ArialMT-65" transform="translate(1106.152344 0)"/>
      <use xlink:href="#ArialMT-73" transform="translate(1161.767578 0)"/>
     </g>
    </g>
   </g>
   <g id="matplotlib.axis_2">
    <g id="ytick_1">
     <g id="text_9">
      <!-- 0 -->
      <g style="fill: #262626" transform="translate(40.362969 301.836797) scale(0.11 -0.11)">
       <use xlink:href="#ArialMT-30"/>
      </g>
     </g>
    </g>
    <g id="ytick_2">
     <g id="text_10">
      <!-- 200 -->
      <g style="fill: #262626" transform="translate(28.128906 239.236698) scale(0.11 -0.11)">
       <use xlink:href="#ArialMT-32"/>
       <use xlink:href="#ArialMT-30" transform="translate(55.615234 0)"/>
       <use xlink:href="#ArialMT-30" transform="translate(111.230469 0)"/>
      </g>
     </g>
    </g>
    <g id="ytick_3">
     <g id="text_11">
      <!-- 400 -->
      <g style="fill: #262626" transform="translate(28.128906 176.636599) scale(0.11 -0.11)">
       <use xlink:href="#ArialMT-34"/>
       <use xlink:href="#ArialMT-30" transform="translate(55.615234 0)"/>
       <use xlink:href="#ArialMT-30" transform="translate(111.230469 0)"/>
      </g>
     </g>
    </g>
    <g id="ytick_4">
     <g id="text_12">
      <!-- 600 -->
      <g style="fill: #262626" transform="translate(28.128906 114.0365) scale(0.11 -0.11)">
       <use xlink:href="#ArialMT-36"/>
       <use xlink:href="#ArialMT-30" transform="translate(55.615234 0)"/>
       <use xlink:href="#ArialMT-30" transform="translate(111.230469 0)"/>
      </g>
     </g>
    </g>
    <g id="ytick_5">
     <g id="text_13">
      <!-- 800 -->
      <g style="fill: #262626" transform="translate(28.128906 51.436401) scale(0.11 -0.11)">
       <defs>
        <path id="ArialMT-38" d="M 1131 2484 
Q 781 2613 612 2850 
Q 444 3088 444 3419 
Q 444 3919 803 4259 
Q 1163 4600 1759 4600 
Q 2359 4600 2725 4251 
Q 3091 3903 3091 3403 
Q 3091 3084 2923 2848 
Q 2756 2613 2416 2484 
Q 2838 2347 3058 2040 
Q 3278 1734 3278 1309 
Q 3278 722 2862 322 
Q 2447 -78 1769 -78 
Q 1091 -78 675 323 
Q 259 725 259 1325 
Q 259 1772 486 2073 
Q 713 2375 1131 2484 
z
M 1019 3438 
Q 1019 3113 1228 2906 
Q 1438 2700 1772 2700 
Q 2097 2700 2305 2904 
Q 2513 3109 2513 3406 
Q 2513 3716 2298 3927 
Q 2084 4138 1766 4138 
Q 1444 4138 1231 3931 
Q 1019 3725 1019 3438 
z
M 838 1322 
Q 838 1081 952 856 
Q 1066 631 1291 507 
Q 1516 384 1775 384 
Q 2178 384 2440 643 
Q 2703 903 2703 1303 
Q 2703 1709 2433 1975 
Q 2163 2241 1756 2241 
Q 1359 2241 1098 1978 
Q 838 1716 838 1322 
z
" transform="scale(0.015625)"/>
       </defs>
       <use xlink:href="#ArialMT-38"/>
       <use xlink:href="#ArialMT-30" transform="translate(55.615234 0)"/>
       <use xlink:href="#ArialMT-30" transform="translate(111.230469 0)"/>
      </g>
     </g>
    </g>
    <g id="text_14">
     <!-- Count -->
     <g style="fill: #262626" transform="translate(21.743906 171.439687) rotate(-90) scale(0.12 -0.12)">
      <defs>
       <path id="ArialMT-43" d="M 3763 1606 
L 4369 1453 
Q 4178 706 3683 314 
Q 3188 -78 2472 -78 
Q 1731 -78 1267 223 
Q 803 525 561 1097 
Q 319 1669 319 2325 
Q 319 3041 592 3573 
Q 866 4106 1370 4382 
Q 1875 4659 2481 4659 
Q 3169 4659 3637 4309 
Q 4106 3959 4291 3325 
L 3694 3184 
Q 3534 3684 3231 3912 
Q 2928 4141 2469 4141 
Q 1941 4141 1586 3887 
Q 1231 3634 1087 3207 
Q 944 2781 944 2328 
Q 944 1744 1114 1308 
Q 1284 872 1643 656 
Q 2003 441 2422 441 
Q 2931 441 3284 734 
Q 3638 1028 3763 1606 
z
" transform="scale(0.015625)"/>
      </defs>
      <use xlink:href="#ArialMT-43"/>
      <use xlink:href="#ArialMT-6f" transform="translate(72.216797 0)"/>
      <use xlink:href="#ArialMT-75" transform="translate(127.832031 0)"/>
      <use xlink:href="#ArialMT-6e" transform="translate(183.447266 0)"/>
      <use xlink:href="#ArialMT-74" transform="translate(239.0625 0)"/>
     </g>
    </g>
   </g>
   <g id="patch_3">
    <path d="M 73.536292 297.9 
L 75.831232 297.9 
L 75.831232 274.737963 
L 73.536292 274.737963 
z
" clip-path="url(#p932be2469c)" style="fill: #808080; fill-opacity: 0.5; stroke: #ffffff; stroke-width: 0.212193; stroke-linejoin: miter"/>
   </g>
   <g id="patch_4">
    <path d="M 75.831232 297.9 
L 78.126172 297.9 
L 78.126172 229.665892 
L 75.831232 229.665892 
z
" clip-path="url(#p932be2469c)" style="fill: #808080; fill-opacity: 0.5; stroke: #ffffff; stroke-width: 0.212193; stroke-linejoin: miter"/>
   </g>
   <g id="patch_5">
    <path d="M 78.126172 297.9 
L 80.421112 297.9 
L 80.421112 202.434849 
L 78.126172 202.434849 
z
" clip-path="url(#p932be2469c)" style="fill: #808080; fill-opacity: 0.5; stroke: #ffffff; stroke-width: 0.212193; stroke-linejoin: miter"/>
   </g>
   <g id="patch_6">
    <path d="M 80.421112 297.9 
L 82.716052 297.9 
L 82.716052 83.181661 
L 80.421112 83.181661 
z
" clip-path="url(#p932be2469c)" style="fill: #808080; fill-opacity: 0.5; stroke: #ffffff; stroke-width: 0.212193; stroke-linejoin: miter"/>
   </g>
   <g id="patch_7">
    <path d="M 82.716052 297.9 
L 85.010992 297.9 
L 85.010992 69.409639 
L 82.716052 69.409639 
z
" clip-path="url(#p932be2469c)" style="fill: #808080; fill-opacity: 0.5; stroke: #ffffff; stroke-width: 0.212193; stroke-linejoin: miter"/>
   </g>
   <g id="patch_8">
    <path d="M 85.010992 297.9 
L 87.305932 297.9 
L 87.305932 26.528571 
L 85.010992 26.528571 
z
" clip-path="url(#p932be2469c)" style="fill: #808080; fill-opacity: 0.5; stroke: #ffffff; stroke-width: 0.212193; stroke-linejoin: miter"/>
   </g>
   <g id="patch_9">
    <path d="M 87.305932 297.9 
L 89.600872 297.9 
L 89.600872 114.16871 
L 87.305932 114.16871 
z
" clip-path="url(#p932be2469c)" style="fill: #808080; fill-opacity: 0.5; stroke: #ffffff; stroke-width: 0.212193; stroke-linejoin: miter"/>
   </g>
   <g id="patch_10">
    <path d="M 89.600872 297.9 
L 91.895812 297.9 
L 91.895812 134.200741 
L 89.600872 134.200741 
z
" clip-path="url(#p932be2469c)" style="fill: #808080; fill-opacity: 0.5; stroke: #ffffff; stroke-width: 0.212193; stroke-linejoin: miter"/>
   </g>
   <g id="patch_11">
    <path d="M 91.895812 297.9 
L 94.190752 297.9 
L 94.190752 124.497726 
L 91.895812 124.497726 
z
" clip-path="url(#p932be2469c)" style="fill: #808080; fill-opacity: 0.5; stroke: #ffffff; stroke-width: 0.212193; stroke-linejoin: miter"/>
   </g>
   <g id="patch_12">
    <path d="M 94.190752 297.9 
L 96.485692 297.9 
L 96.485692 137.956747 
L 94.190752 137.956747 
z
" clip-path="url(#p932be2469c)" style="fill: #808080; fill-opacity: 0.5; stroke: #ffffff; stroke-width: 0.212193; stroke-linejoin: miter"/>
   </g>
   <g id="patch_13">
    <path d="M 96.485692 297.9 
L 98.780632 297.9 
L 98.780632 164.248789 
L 96.485692 164.248789 
z
" clip-path="url(#p932be2469c)" style="fill: #808080; fill-opacity: 0.5; stroke: #ffffff; stroke-width: 0.212193; stroke-linejoin: miter"/>
   </g>
   <g id="patch_14">
    <path d="M 98.780632 297.9 
L 101.075573 297.9 
L 101.075573 157.049778 
L 98.780632 157.049778 
z
" clip-path="url(#p932be2469c)" style="fill: #808080; fill-opacity: 0.5; stroke: #ffffff; stroke-width: 0.212193; stroke-linejoin: miter"/>
   </g>
   <g id="patch_15">
    <path d="M 101.075573 297.9 
L 103.370513 297.9 
L 103.370513 148.911765 
L 101.075573 148.911765 
z
" clip-path="url(#p932be2469c)" style="fill: #808080; fill-opacity: 0.5; stroke: #ffffff; stroke-width: 0.212193; stroke-linejoin: miter"/>
   </g>
   <g id="patch_16">
    <path d="M 103.370513 297.9 
L 105.665453 297.9 
L 105.665453 152.667771 
L 103.370513 152.667771 
z
" clip-path="url(#p932be2469c)" style="fill: #808080; fill-opacity: 0.5; stroke: #ffffff; stroke-width: 0.212193; stroke-linejoin: miter"/>
   </g>
   <g id="patch_17">
    <path d="M 105.665453 297.9 
L 107.960393 297.9 
L 107.960393 203.999852 
L 105.665453 203.999852 
z
" clip-path="url(#p932be2469c)" style="fill: #808080; fill-opacity: 0.5; stroke: #ffffff; stroke-width: 0.212193; stroke-linejoin: miter"/>
   </g>
   <g id="patch_18">
    <path d="M 107.960393 297.9 
L 110.255333 297.9 
L 110.255333 224.970885 
L 107.960393 224.970885 
z
" clip-path="url(#p932be2469c)" style="fill: #808080; fill-opacity: 0.5; stroke: #ffffff; stroke-width: 0.212193; stroke-linejoin: miter"/>
   </g>
   <g id="patch_19">
    <path d="M 110.255333 297.9 
L 112.550273 297.9 
L 112.550273 220.588878 
L 110.255333 220.588878 
z
" clip-path="url(#p932be2469c)" style="fill: #808080; fill-opacity: 0.5; stroke: #ffffff; stroke-width: 0.212193; stroke-linejoin: miter"/>
   </g>
   <g id="patch_20">
    <path d="M 112.550273 297.9 
L 114.845213 297.9 
L 114.845213 225.283885 
L 112.550273 225.283885 
z
" clip-path="url(#p932be2469c)" style="fill: #808080; fill-opacity: 0.5; stroke: #ffffff; stroke-width: 0.212193; stroke-linejoin: miter"/>
   </g>
   <g id="patch_21">
    <path d="M 114.845213 297.9 
L 117.140153 297.9 
L 117.140153 237.803905 
L 114.845213 237.803905 
z
" clip-path="url(#p932be2469c)" style="fill: #808080; fill-opacity: 0.5; stroke: #ffffff; stroke-width: 0.212193; stroke-linejoin: miter"/>
   </g>
   <g id="patch_22">
    <path d="M 117.140153 297.9 
L 119.435093 297.9 
L 119.435093 229.665892 
L 117.140153 229.665892 
z
" clip-path="url(#p932be2469c)" style="fill: #808080; fill-opacity: 0.5; stroke: #ffffff; stroke-width: 0.212193; stroke-linejoin: miter"/>
   </g>
   <g id="patch_23">
    <path d="M 119.435093 297.9 
L 121.730033 297.9 
L 121.730033 238.742907 
L 119.435093 238.742907 
z
" clip-path="url(#p932be2469c)" style="fill: #808080; fill-opacity: 0.5; stroke: #ffffff; stroke-width: 0.212193; stroke-linejoin: miter"/>
   </g>
   <g id="patch_24">
    <path d="M 121.730033 297.9 
L 124.024973 297.9 
L 124.024973 254.392931 
L 121.730033 254.392931 
z
" clip-path="url(#p932be2469c)" style="fill: #808080; fill-opacity: 0.5; stroke: #ffffff; stroke-width: 0.212193; stroke-linejoin: miter"/>
   </g>
   <g id="patch_25">
    <path d="M 124.024973 297.9 
L 126.319913 297.9 
L 126.319913 260.965942 
L 124.024973 260.965942 
z
" clip-path="url(#p932be2469c)" style="fill: #808080; fill-opacity: 0.5; stroke: #ffffff; stroke-width: 0.212193; stroke-linejoin: miter"/>
   </g>
   <g id="patch_26">
    <path d="M 126.319913 297.9 
L 128.614853 297.9 
L 128.614853 272.85996 
L 126.319913 272.85996 
z
" clip-path="url(#p932be2469c)" style="fill: #808080; fill-opacity: 0.5; stroke: #ffffff; stroke-width: 0.212193; stroke-linejoin: miter"/>
   </g>
   <g id="patch_27">
    <path d="M 128.614853 297.9 
L 130.909794 297.9 
L 130.909794 280.684973 
L 128.614853 280.684973 
z
" clip-path="url(#p932be2469c)" style="fill: #808080; fill-opacity: 0.5; stroke: #ffffff; stroke-width: 0.212193; stroke-linejoin: miter"/>
   </g>
   <g id="patch_28">
    <path d="M 130.909794 297.9 
L 133.204734 297.9 
L 133.204734 280.997973 
L 130.909794 280.997973 
z
" clip-path="url(#p932be2469c)" style="fill: #808080; fill-opacity: 0.5; stroke: #ffffff; stroke-width: 0.212193; stroke-linejoin: miter"/>
   </g>
   <g id="patch_29">
    <path d="M 133.204734 297.9 
L 135.499674 297.9 
L 135.499674 273.798962 
L 133.204734 273.798962 
z
" clip-path="url(#p932be2469c)" style="fill: #808080; fill-opacity: 0.5; stroke: #ffffff; stroke-width: 0.212193; stroke-linejoin: miter"/>
   </g>
   <g id="patch_30">
    <path d="M 135.499674 297.9 
L 137.794614 297.9 
L 137.794614 275.050964 
L 135.499674 275.050964 
z
" clip-path="url(#p932be2469c)" style="fill: #808080; fill-opacity: 0.5; stroke: #ffffff; stroke-width: 0.212193; stroke-linejoin: miter"/>
   </g>
   <g id="patch_31">
    <path d="M 137.794614 297.9 
L 140.089554 297.9 
L 140.089554 280.058972 
L 137.794614 280.058972 
z
" clip-path="url(#p932be2469c)" style="fill: #808080; fill-opacity: 0.5; stroke: #ffffff; stroke-width: 0.212193; stroke-linejoin: miter"/>
   </g>
   <g id="patch_32">
    <path d="M 140.089554 297.9 
L 142.384494 297.9 
L 142.384494 290.700989 
L 140.089554 290.700989 
z
" clip-path="url(#p932be2469c)" style="fill: #808080; fill-opacity: 0.5; stroke: #ffffff; stroke-width: 0.212193; stroke-linejoin: miter"/>
   </g>
   <g id="patch_33">
    <path d="M 142.384494 297.9 
L 144.679434 297.9 
L 144.679434 288.822986 
L 142.384494 288.822986 
z
" clip-path="url(#p932be2469c)" style="fill: #808080; fill-opacity: 0.5; stroke: #ffffff; stroke-width: 0.212193; stroke-linejoin: miter"/>
   </g>
   <g id="patch_34">
    <path d="M 144.679434 297.9 
L 146.974374 297.9 
L 146.974374 286.944983 
L 144.679434 286.944983 
z
" clip-path="url(#p932be2469c)" style="fill: #808080; fill-opacity: 0.5; stroke: #ffffff; stroke-width: 0.212193; stroke-linejoin: miter"/>
   </g>
   <g id="patch_35">
    <path d="M 146.974374 297.9 
L 149.269314 297.9 
L 149.269314 293.517993 
L 146.974374 293.517993 
z
" clip-path="url(#p932be2469c)" style="fill: #808080; fill-opacity: 0.5; stroke: #ffffff; stroke-width: 0.212193; stroke-linejoin: miter"/>
   </g>
   <g id="patch_36">
    <path d="M 149.269314 297.9 
L 151.564254 297.9 
L 151.564254 291.32699 
L 149.269314 291.32699 
z
" clip-path="url(#p932be2469c)" style="fill: #808080; fill-opacity: 0.5; stroke: #ffffff; stroke-width: 0.212193; stroke-linejoin: miter"/>
   </g>
   <g id="patch_37">
    <path d="M 151.564254 297.9 
L 153.859194 297.9 
L 153.859194 289.448987 
L 151.564254 289.448987 
z
" clip-path="url(#p932be2469c)" style="fill: #808080; fill-opacity: 0.5; stroke: #ffffff; stroke-width: 0.212193; stroke-linejoin: miter"/>
   </g>
   <g id="patch_38">
    <path d="M 153.859194 297.9 
L 156.154134 297.9 
L 156.154134 288.822986 
L 153.859194 288.822986 
z
" clip-path="url(#p932be2469c)" style="fill: #808080; fill-opacity: 0.5; stroke: #ffffff; stroke-width: 0.212193; stroke-linejoin: miter"/>
   </g>
   <g id="patch_39">
    <path d="M 156.154134 297.9 
L 158.449074 297.9 
L 158.449074 293.517993 
L 156.154134 293.517993 
z
" clip-path="url(#p932be2469c)" style="fill: #808080; fill-opacity: 0.5; stroke: #ffffff; stroke-width: 0.212193; stroke-linejoin: miter"/>
   </g>
   <g id="patch_40">
    <path d="M 158.449074 297.9 
L 160.744015 297.9 
L 160.744015 289.761987 
L 158.449074 289.761987 
z
" clip-path="url(#p932be2469c)" style="fill: #808080; fill-opacity: 0.5; stroke: #ffffff; stroke-width: 0.212193; stroke-linejoin: miter"/>
   </g>
   <g id="patch_41">
    <path d="M 160.744015 297.9 
L 163.038955 297.9 
L 163.038955 291.013989 
L 160.744015 291.013989 
z
" clip-path="url(#p932be2469c)" style="fill: #808080; fill-opacity: 0.5; stroke: #ffffff; stroke-width: 0.212193; stroke-linejoin: miter"/>
   </g>
   <g id="patch_42">
    <path d="M 163.038955 297.9 
L 165.333895 297.9 
L 165.333895 286.944983 
L 163.038955 286.944983 
z
" clip-path="url(#p932be2469c)" style="fill: #808080; fill-opacity: 0.5; stroke: #ffffff; stroke-width: 0.212193; stroke-linejoin: miter"/>
   </g>
   <g id="patch_43">
    <path d="M 165.333895 297.9 
L 167.628835 297.9 
L 167.628835 290.387988 
L 165.333895 290.387988 
z
" clip-path="url(#p932be2469c)" style="fill: #808080; fill-opacity: 0.5; stroke: #ffffff; stroke-width: 0.212193; stroke-linejoin: miter"/>
   </g>
   <g id="patch_44">
    <path d="M 167.628835 297.9 
L 169.923775 297.9 
L 169.923775 293.830994 
L 167.628835 293.830994 
z
" clip-path="url(#p932be2469c)" style="fill: #808080; fill-opacity: 0.5; stroke: #ffffff; stroke-width: 0.212193; stroke-linejoin: miter"/>
   </g>
   <g id="patch_45">
    <path d="M 169.923775 297.9 
L 172.218715 297.9 
L 172.218715 287.257983 
L 169.923775 287.257983 
z
" clip-path="url(#p932be2469c)" style="fill: #808080; fill-opacity: 0.5; stroke: #ffffff; stroke-width: 0.212193; stroke-linejoin: miter"/>
   </g>
   <g id="patch_46">
    <path d="M 172.218715 297.9 
L 174.513655 297.9 
L 174.513655 287.570984 
L 172.218715 287.570984 
z
" clip-path="url(#p932be2469c)" style="fill: #808080; fill-opacity: 0.5; stroke: #ffffff; stroke-width: 0.212193; stroke-linejoin: miter"/>
   </g>
   <g id="patch_47">
    <path d="M 174.513655 297.9 
L 176.808595 297.9 
L 176.808595 285.692981 
L 174.513655 285.692981 
z
" clip-path="url(#p932be2469c)" style="fill: #808080; fill-opacity: 0.5; stroke: #ffffff; stroke-width: 0.212193; stroke-linejoin: miter"/>
   </g>
   <g id="patch_48">
    <path d="M 176.808595 297.9 
L 179.103535 297.9 
L 179.103535 295.708997 
L 176.808595 295.708997 
z
" clip-path="url(#p932be2469c)" style="fill: #808080; fill-opacity: 0.5; stroke: #ffffff; stroke-width: 0.212193; stroke-linejoin: miter"/>
   </g>
   <g id="patch_49">
    <path d="M 179.103535 297.9 
L 181.398475 297.9 
L 181.398475 297.587 
L 179.103535 297.587 
z
" clip-path="url(#p932be2469c)" style="fill: #808080; fill-opacity: 0.5; stroke: #ffffff; stroke-width: 0.212193; stroke-linejoin: miter"/>
   </g>
   <g id="patch_50">
    <path d="M 181.398475 297.9 
L 183.693415 297.9 
L 183.693415 295.708997 
L 181.398475 295.708997 
z
" clip-path="url(#p932be2469c)" style="fill: #808080; fill-opacity: 0.5; stroke: #ffffff; stroke-width: 0.212193; stroke-linejoin: miter"/>
   </g>
   <g id="patch_51">
    <path d="M 183.693415 297.9 
L 185.988355 297.9 
L 185.988355 295.082996 
L 183.693415 295.082996 
z
" clip-path="url(#p932be2469c)" style="fill: #808080; fill-opacity: 0.5; stroke: #ffffff; stroke-width: 0.212193; stroke-linejoin: miter"/>
   </g>
   <g id="patch_52">
    <path d="M 185.988355 297.9 
L 188.283296 297.9 
L 188.283296 297.9 
L 185.988355 297.9 
z
" clip-path="url(#p932be2469c)" style="fill: #808080; fill-opacity: 0.5; stroke: #ffffff; stroke-width: 0.212193; stroke-linejoin: miter"/>
   </g>
   <g id="patch_53">
    <path d="M 188.283296 297.9 
L 190.578236 297.9 
L 190.578236 296.960999 
L 188.283296 296.960999 
z
" clip-path="url(#p932be2469c)" style="fill: #808080; fill-opacity: 0.5; stroke: #ffffff; stroke-width: 0.212193; stroke-linejoin: miter"/>
   </g>
   <g id="patch_54">
    <path d="M 190.578236 297.9 
L 192.873176 297.9 
L 192.873176 297.273999 
L 190.578236 297.273999 
z
" clip-path="url(#p932be2469c)" style="fill: #808080; fill-opacity: 0.5; stroke: #ffffff; stroke-width: 0.212193; stroke-linejoin: miter"/>
   </g>
   <g id="patch_55">
    <path d="M 192.873176 297.9 
L 195.168116 297.9 
L 195.168116 295.082996 
L 192.873176 295.082996 
z
" clip-path="url(#p932be2469c)" style="fill: #808080; fill-opacity: 0.5; stroke: #ffffff; stroke-width: 0.212193; stroke-linejoin: miter"/>
   </g>
   <g id="patch_56">
    <path d="M 195.168116 297.9 
L 197.463056 297.9 
L 197.463056 296.960999 
L 195.168116 296.960999 
z
" clip-path="url(#p932be2469c)" style="fill: #808080; fill-opacity: 0.5; stroke: #ffffff; stroke-width: 0.212193; stroke-linejoin: miter"/>
   </g>
   <g id="patch_57">
    <path d="M 197.463056 297.9 
L 199.757996 297.9 
L 199.757996 293.830994 
L 197.463056 293.830994 
z
" clip-path="url(#p932be2469c)" style="fill: #808080; fill-opacity: 0.5; stroke: #ffffff; stroke-width: 0.212193; stroke-linejoin: miter"/>
   </g>
   <g id="patch_58">
    <path d="M 199.757996 297.9 
L 202.052936 297.9 
L 202.052936 296.021997 
L 199.757996 296.021997 
z
" clip-path="url(#p932be2469c)" style="fill: #808080; fill-opacity: 0.5; stroke: #ffffff; stroke-width: 0.212193; stroke-linejoin: miter"/>
   </g>
   <g id="patch_59">
    <path d="M 202.052936 297.9 
L 204.347876 297.9 
L 204.347876 296.334998 
L 202.052936 296.334998 
z
" clip-path="url(#p932be2469c)" style="fill: #808080; fill-opacity: 0.5; stroke: #ffffff; stroke-width: 0.212193; stroke-linejoin: miter"/>
   </g>
   <g id="patch_60">
    <path d="M 204.347876 297.9 
L 206.642816 297.9 
L 206.642816 291.63999 
L 204.347876 291.63999 
z
" clip-path="url(#p932be2469c)" style="fill: #808080; fill-opacity: 0.5; stroke: #ffffff; stroke-width: 0.212193; stroke-linejoin: miter"/>
   </g>
   <g id="patch_61">
    <path d="M 206.642816 297.9 
L 208.937756 297.9 
L 208.937756 294.143994 
L 206.642816 294.143994 
z
" clip-path="url(#p932be2469c)" style="fill: #808080; fill-opacity: 0.5; stroke: #ffffff; stroke-width: 0.212193; stroke-linejoin: miter"/>
   </g>
   <g id="patch_62">
    <path d="M 208.937756 297.9 
L 211.232696 297.9 
L 211.232696 295.708997 
L 208.937756 295.708997 
z
" clip-path="url(#p932be2469c)" style="fill: #808080; fill-opacity: 0.5; stroke: #ffffff; stroke-width: 0.212193; stroke-linejoin: miter"/>
   </g>
   <g id="patch_63">
    <path d="M 211.232696 297.9 
L 213.527636 297.9 
L 213.527636 293.830994 
L 211.232696 293.830994 
z
" clip-path="url(#p932be2469c)" style="fill: #808080; fill-opacity: 0.5; stroke: #ffffff; stroke-width: 0.212193; stroke-linejoin: miter"/>
   </g>
   <g id="patch_64">
    <path d="M 213.527636 297.9 
L 215.822576 297.9 
L 215.822576 296.021997 
L 213.527636 296.021997 
z
" clip-path="url(#p932be2469c)" style="fill: #808080; fill-opacity: 0.5; stroke: #ffffff; stroke-width: 0.212193; stroke-linejoin: miter"/>
   </g>
   <g id="patch_65">
    <path d="M 215.822576 297.9 
L 218.117517 297.9 
L 218.117517 295.395996 
L 215.822576 295.395996 
z
" clip-path="url(#p932be2469c)" style="fill: #808080; fill-opacity: 0.5; stroke: #ffffff; stroke-width: 0.212193; stroke-linejoin: miter"/>
   </g>
   <g id="patch_66">
    <path d="M 218.117517 297.9 
L 220.412457 297.9 
L 220.412457 293.517993 
L 218.117517 293.517993 
z
" clip-path="url(#p932be2469c)" style="fill: #808080; fill-opacity: 0.5; stroke: #ffffff; stroke-width: 0.212193; stroke-linejoin: miter"/>
   </g>
   <g id="patch_67">
    <path d="M 220.412457 297.9 
L 222.707397 297.9 
L 222.707397 297.273999 
L 220.412457 297.273999 
z
" clip-path="url(#p932be2469c)" style="fill: #808080; fill-opacity: 0.5; stroke: #ffffff; stroke-width: 0.212193; stroke-linejoin: miter"/>
   </g>
   <g id="patch_68">
    <path d="M 222.707397 297.9 
L 225.002337 297.9 
L 225.002337 297.9 
L 222.707397 297.9 
z
" clip-path="url(#p932be2469c)" style="fill: #808080; fill-opacity: 0.5; stroke: #ffffff; stroke-width: 0.212193; stroke-linejoin: miter"/>
   </g>
   <g id="patch_69">
    <path d="M 225.002337 297.9 
L 227.297277 297.9 
L 227.297277 297.587 
L 225.002337 297.587 
z
" clip-path="url(#p932be2469c)" style="fill: #808080; fill-opacity: 0.5; stroke: #ffffff; stroke-width: 0.212193; stroke-linejoin: miter"/>
   </g>
   <g id="patch_70">
    <path d="M 227.297277 297.9 
L 229.592217 297.9 
L 229.592217 297.587 
L 227.297277 297.587 
z
" clip-path="url(#p932be2469c)" style="fill: #808080; fill-opacity: 0.5; stroke: #ffffff; stroke-width: 0.212193; stroke-linejoin: miter"/>
   </g>
   <g id="patch_71">
    <path d="M 229.592217 297.9 
L 231.887157 297.9 
L 231.887157 296.021997 
L 229.592217 296.021997 
z
" clip-path="url(#p932be2469c)" style="fill: #808080; fill-opacity: 0.5; stroke: #ffffff; stroke-width: 0.212193; stroke-linejoin: miter"/>
   </g>
   <g id="patch_72">
    <path d="M 231.887157 297.9 
L 234.182097 297.9 
L 234.182097 296.021997 
L 231.887157 296.021997 
z
" clip-path="url(#p932be2469c)" style="fill: #808080; fill-opacity: 0.5; stroke: #ffffff; stroke-width: 0.212193; stroke-linejoin: miter"/>
   </g>
   <g id="patch_73">
    <path d="M 234.182097 297.9 
L 236.477037 297.9 
L 236.477037 297.587 
L 234.182097 297.587 
z
" clip-path="url(#p932be2469c)" style="fill: #808080; fill-opacity: 0.5; stroke: #ffffff; stroke-width: 0.212193; stroke-linejoin: miter"/>
   </g>
   <g id="patch_74">
    <path d="M 236.477037 297.9 
L 238.771977 297.9 
L 238.771977 297.587 
L 236.477037 297.587 
z
" clip-path="url(#p932be2469c)" style="fill: #808080; fill-opacity: 0.5; stroke: #ffffff; stroke-width: 0.212193; stroke-linejoin: miter"/>
   </g>
   <g id="patch_75">
    <path d="M 238.771977 297.9 
L 241.066917 297.9 
L 241.066917 296.021997 
L 238.771977 296.021997 
z
" clip-path="url(#p932be2469c)" style="fill: #808080; fill-opacity: 0.5; stroke: #ffffff; stroke-width: 0.212193; stroke-linejoin: miter"/>
   </g>
   <g id="patch_76">
    <path d="M 241.066917 297.9 
L 243.361857 297.9 
L 243.361857 296.647998 
L 241.066917 296.647998 
z
" clip-path="url(#p932be2469c)" style="fill: #808080; fill-opacity: 0.5; stroke: #ffffff; stroke-width: 0.212193; stroke-linejoin: miter"/>
   </g>
   <g id="patch_77">
    <path d="M 243.361857 297.9 
L 245.656797 297.9 
L 245.656797 296.960999 
L 243.361857 296.960999 
z
" clip-path="url(#p932be2469c)" style="fill: #808080; fill-opacity: 0.5; stroke: #ffffff; stroke-width: 0.212193; stroke-linejoin: miter"/>
   </g>
   <g id="patch_78">
    <path d="M 245.656797 297.9 
L 247.951738 297.9 
L 247.951738 293.517993 
L 245.656797 293.517993 
z
" clip-path="url(#p932be2469c)" style="fill: #808080; fill-opacity: 0.5; stroke: #ffffff; stroke-width: 0.212193; stroke-linejoin: miter"/>
   </g>
   <g id="patch_79">
    <path d="M 247.951738 297.9 
L 250.246678 297.9 
L 250.246678 296.647998 
L 247.951738 296.647998 
z
" clip-path="url(#p932be2469c)" style="fill: #808080; fill-opacity: 0.5; stroke: #ffffff; stroke-width: 0.212193; stroke-linejoin: miter"/>
   </g>
   <g id="patch_80">
    <path d="M 250.246678 297.9 
L 252.541618 297.9 
L 252.541618 297.9 
L 250.246678 297.9 
z
" clip-path="url(#p932be2469c)" style="fill: #808080; fill-opacity: 0.5; stroke: #ffffff; stroke-width: 0.212193; stroke-linejoin: miter"/>
   </g>
   <g id="patch_81">
    <path d="M 252.541618 297.9 
L 254.836558 297.9 
L 254.836558 292.265991 
L 252.541618 292.265991 
z
" clip-path="url(#p932be2469c)" style="fill: #808080; fill-opacity: 0.5; stroke: #ffffff; stroke-width: 0.212193; stroke-linejoin: miter"/>
   </g>
   <g id="patch_82">
    <path d="M 254.836558 297.9 
L 257.131498 297.9 
L 257.131498 297.587 
L 254.836558 297.587 
z
" clip-path="url(#p932be2469c)" style="fill: #808080; fill-opacity: 0.5; stroke: #ffffff; stroke-width: 0.212193; stroke-linejoin: miter"/>
   </g>
   <g id="patch_83">
    <path d="M 257.131498 297.9 
L 259.426438 297.9 
L 259.426438 295.708997 
L 257.131498 295.708997 
z
" clip-path="url(#p932be2469c)" style="fill: #808080; fill-opacity: 0.5; stroke: #ffffff; stroke-width: 0.212193; stroke-linejoin: miter"/>
   </g>
   <g id="patch_84">
    <path d="M 259.426438 297.9 
L 261.721378 297.9 
L 261.721378 295.708997 
L 259.426438 295.708997 
z
" clip-path="url(#p932be2469c)" style="fill: #808080; fill-opacity: 0.5; stroke: #ffffff; stroke-width: 0.212193; stroke-linejoin: miter"/>
   </g>
   <g id="patch_85">
    <path d="M 261.721378 297.9 
L 264.016318 297.9 
L 264.016318 294.143994 
L 261.721378 294.143994 
z
" clip-path="url(#p932be2469c)" style="fill: #808080; fill-opacity: 0.5; stroke: #ffffff; stroke-width: 0.212193; stroke-linejoin: miter"/>
   </g>
   <g id="patch_86">
    <path d="M 264.016318 297.9 
L 266.311258 297.9 
L 266.311258 290.074988 
L 264.016318 290.074988 
z
" clip-path="url(#p932be2469c)" style="fill: #808080; fill-opacity: 0.5; stroke: #ffffff; stroke-width: 0.212193; stroke-linejoin: miter"/>
   </g>
   <g id="patch_87">
    <path d="M 266.311258 297.9 
L 268.606198 297.9 
L 268.606198 296.647998 
L 266.311258 296.647998 
z
" clip-path="url(#p932be2469c)" style="fill: #808080; fill-opacity: 0.5; stroke: #ffffff; stroke-width: 0.212193; stroke-linejoin: miter"/>
   </g>
   <g id="patch_88">
    <path d="M 268.606198 297.9 
L 270.901138 297.9 
L 270.901138 296.334998 
L 268.606198 296.334998 
z
" clip-path="url(#p932be2469c)" style="fill: #808080; fill-opacity: 0.5; stroke: #ffffff; stroke-width: 0.212193; stroke-linejoin: miter"/>
   </g>
   <g id="patch_89">
    <path d="M 270.901138 297.9 
L 273.196078 297.9 
L 273.196078 297.273999 
L 270.901138 297.273999 
z
" clip-path="url(#p932be2469c)" style="fill: #808080; fill-opacity: 0.5; stroke: #ffffff; stroke-width: 0.212193; stroke-linejoin: miter"/>
   </g>
   <g id="patch_90">
    <path d="M 273.196078 297.9 
L 275.491018 297.9 
L 275.491018 294.456995 
L 273.196078 294.456995 
z
" clip-path="url(#p932be2469c)" style="fill: #808080; fill-opacity: 0.5; stroke: #ffffff; stroke-width: 0.212193; stroke-linejoin: miter"/>
   </g>
   <g id="patch_91">
    <path d="M 275.491018 297.9 
L 277.785959 297.9 
L 277.785959 296.021997 
L 275.491018 296.021997 
z
" clip-path="url(#p932be2469c)" style="fill: #808080; fill-opacity: 0.5; stroke: #ffffff; stroke-width: 0.212193; stroke-linejoin: miter"/>
   </g>
   <g id="patch_92">
    <path d="M 277.785959 297.9 
L 280.080899 297.9 
L 280.080899 295.395996 
L 277.785959 295.395996 
z
" clip-path="url(#p932be2469c)" style="fill: #808080; fill-opacity: 0.5; stroke: #ffffff; stroke-width: 0.212193; stroke-linejoin: miter"/>
   </g>
   <g id="patch_93">
    <path d="M 280.080899 297.9 
L 282.375839 297.9 
L 282.375839 295.082996 
L 280.080899 295.082996 
z
" clip-path="url(#p932be2469c)" style="fill: #808080; fill-opacity: 0.5; stroke: #ffffff; stroke-width: 0.212193; stroke-linejoin: miter"/>
   </g>
   <g id="patch_94">
    <path d="M 282.375839 297.9 
L 284.670779 297.9 
L 284.670779 296.647998 
L 282.375839 296.647998 
z
" clip-path="url(#p932be2469c)" style="fill: #808080; fill-opacity: 0.5; stroke: #ffffff; stroke-width: 0.212193; stroke-linejoin: miter"/>
   </g>
   <g id="patch_95">
    <path d="M 284.670779 297.9 
L 286.965719 297.9 
L 286.965719 296.334998 
L 284.670779 296.334998 
z
" clip-path="url(#p932be2469c)" style="fill: #808080; fill-opacity: 0.5; stroke: #ffffff; stroke-width: 0.212193; stroke-linejoin: miter"/>
   </g>
   <g id="patch_96">
    <path d="M 286.965719 297.9 
L 289.260659 297.9 
L 289.260659 297.273999 
L 286.965719 297.273999 
z
" clip-path="url(#p932be2469c)" style="fill: #808080; fill-opacity: 0.5; stroke: #ffffff; stroke-width: 0.212193; stroke-linejoin: miter"/>
   </g>
   <g id="patch_97">
    <path d="M 289.260659 297.9 
L 291.555599 297.9 
L 291.555599 297.9 
L 289.260659 297.9 
z
" clip-path="url(#p932be2469c)" style="fill: #808080; fill-opacity: 0.5; stroke: #ffffff; stroke-width: 0.212193; stroke-linejoin: miter"/>
   </g>
   <g id="patch_98">
    <path d="M 291.555599 297.9 
L 293.850539 297.9 
L 293.850539 297.9 
L 291.555599 297.9 
z
" clip-path="url(#p932be2469c)" style="fill: #808080; fill-opacity: 0.5; stroke: #ffffff; stroke-width: 0.212193; stroke-linejoin: miter"/>
   </g>
   <g id="patch_99">
    <path d="M 293.850539 297.9 
L 296.145479 297.9 
L 296.145479 297.9 
L 293.850539 297.9 
z
" clip-path="url(#p932be2469c)" style="fill: #808080; fill-opacity: 0.5; stroke: #ffffff; stroke-width: 0.212193; stroke-linejoin: miter"/>
   </g>
   <g id="patch_100">
    <path d="M 296.145479 297.9 
L 298.440419 297.9 
L 298.440419 296.334998 
L 296.145479 296.334998 
z
" clip-path="url(#p932be2469c)" style="fill: #808080; fill-opacity: 0.5; stroke: #ffffff; stroke-width: 0.212193; stroke-linejoin: miter"/>
   </g>
   <g id="patch_101">
    <path d="M 298.440419 297.9 
L 300.735359 297.9 
L 300.735359 297.9 
L 298.440419 297.9 
z
" clip-path="url(#p932be2469c)" style="fill: #808080; fill-opacity: 0.5; stroke: #ffffff; stroke-width: 0.212193; stroke-linejoin: miter"/>
   </g>
   <g id="patch_102">
    <path d="M 300.735359 297.9 
L 303.030299 297.9 
L 303.030299 297.9 
L 300.735359 297.9 
z
" clip-path="url(#p932be2469c)" style="fill: #808080; fill-opacity: 0.5; stroke: #ffffff; stroke-width: 0.212193; stroke-linejoin: miter"/>
   </g>
   <g id="patch_103">
    <path d="M 303.030299 297.9 
L 305.32524 297.9 
L 305.32524 297.9 
L 303.030299 297.9 
z
" clip-path="url(#p932be2469c)" style="fill: #808080; fill-opacity: 0.5; stroke: #ffffff; stroke-width: 0.212193; stroke-linejoin: miter"/>
   </g>
   <g id="patch_104">
    <path d="M 305.32524 297.9 
L 307.62018 297.9 
L 307.62018 297.587 
L 305.32524 297.587 
z
" clip-path="url(#p932be2469c)" style="fill: #808080; fill-opacity: 0.5; stroke: #ffffff; stroke-width: 0.212193; stroke-linejoin: miter"/>
   </g>
   <g id="patch_105">
    <path d="M 307.62018 297.9 
L 309.91512 297.9 
L 309.91512 297.9 
L 307.62018 297.9 
z
" clip-path="url(#p932be2469c)" style="fill: #808080; fill-opacity: 0.5; stroke: #ffffff; stroke-width: 0.212193; stroke-linejoin: miter"/>
   </g>
   <g id="patch_106">
    <path d="M 309.91512 297.9 
L 312.21006 297.9 
L 312.21006 297.9 
L 309.91512 297.9 
z
" clip-path="url(#p932be2469c)" style="fill: #808080; fill-opacity: 0.5; stroke: #ffffff; stroke-width: 0.212193; stroke-linejoin: miter"/>
   </g>
   <g id="patch_107">
    <path d="M 312.21006 297.9 
L 314.505 297.9 
L 314.505 297.9 
L 312.21006 297.9 
z
" clip-path="url(#p932be2469c)" style="fill: #808080; fill-opacity: 0.5; stroke: #ffffff; stroke-width: 0.212193; stroke-linejoin: miter"/>
   </g>
   <g id="patch_108">
    <path d="M 314.505 297.9 
L 316.79994 297.9 
L 316.79994 297.9 
L 314.505 297.9 
z
" clip-path="url(#p932be2469c)" style="fill: #808080; fill-opacity: 0.5; stroke: #ffffff; stroke-width: 0.212193; stroke-linejoin: miter"/>
   </g>
   <g id="patch_109">
    <path d="M 316.79994 297.9 
L 319.09488 297.9 
L 319.09488 297.9 
L 316.79994 297.9 
z
" clip-path="url(#p932be2469c)" style="fill: #808080; fill-opacity: 0.5; stroke: #ffffff; stroke-width: 0.212193; stroke-linejoin: miter"/>
   </g>
   <g id="patch_110">
    <path d="M 319.09488 297.9 
L 321.38982 297.9 
L 321.38982 297.9 
L 319.09488 297.9 
z
" clip-path="url(#p932be2469c)" style="fill: #808080; fill-opacity: 0.5; stroke: #ffffff; stroke-width: 0.212193; stroke-linejoin: miter"/>
   </g>
   <g id="patch_111">
    <path d="M 321.38982 297.9 
L 323.68476 297.9 
L 323.68476 297.9 
L 321.38982 297.9 
z
" clip-path="url(#p932be2469c)" style="fill: #808080; fill-opacity: 0.5; stroke: #ffffff; stroke-width: 0.212193; stroke-linejoin: miter"/>
   </g>
   <g id="patch_112">
    <path d="M 323.68476 297.9 
L 325.9797 297.9 
L 325.9797 297.273999 
L 323.68476 297.273999 
z
" clip-path="url(#p932be2469c)" style="fill: #808080; fill-opacity: 0.5; stroke: #ffffff; stroke-width: 0.212193; stroke-linejoin: miter"/>
   </g>
   <g id="patch_113">
    <path d="M 325.9797 297.9 
L 328.27464 297.9 
L 328.27464 296.021997 
L 325.9797 296.021997 
z
" clip-path="url(#p932be2469c)" style="fill: #808080; fill-opacity: 0.5; stroke: #ffffff; stroke-width: 0.212193; stroke-linejoin: miter"/>
   </g>
   <g id="patch_114">
    <path d="M 328.27464 297.9 
L 330.56958 297.9 
L 330.56958 297.9 
L 328.27464 297.9 
z
" clip-path="url(#p932be2469c)" style="fill: #808080; fill-opacity: 0.5; stroke: #ffffff; stroke-width: 0.212193; stroke-linejoin: miter"/>
   </g>
   <g id="patch_115">
    <path d="M 330.56958 297.9 
L 332.86452 297.9 
L 332.86452 297.9 
L 330.56958 297.9 
z
" clip-path="url(#p932be2469c)" style="fill: #808080; fill-opacity: 0.5; stroke: #ffffff; stroke-width: 0.212193; stroke-linejoin: miter"/>
   </g>
   <g id="patch_116">
    <path d="M 332.86452 297.9 
L 335.159461 297.9 
L 335.159461 297.9 
L 332.86452 297.9 
z
" clip-path="url(#p932be2469c)" style="fill: #808080; fill-opacity: 0.5; stroke: #ffffff; stroke-width: 0.212193; stroke-linejoin: miter"/>
   </g>
   <g id="patch_117">
    <path d="M 335.159461 297.9 
L 337.454401 297.9 
L 337.454401 297.587 
L 335.159461 297.587 
z
" clip-path="url(#p932be2469c)" style="fill: #808080; fill-opacity: 0.5; stroke: #ffffff; stroke-width: 0.212193; stroke-linejoin: miter"/>
   </g>
   <g id="patch_118">
    <path d="M 337.454401 297.9 
L 339.749341 297.9 
L 339.749341 296.960999 
L 337.454401 296.960999 
z
" clip-path="url(#p932be2469c)" style="fill: #808080; fill-opacity: 0.5; stroke: #ffffff; stroke-width: 0.212193; stroke-linejoin: miter"/>
   </g>
   <g id="patch_119">
    <path d="M 339.749341 297.9 
L 342.044281 297.9 
L 342.044281 296.647998 
L 339.749341 296.647998 
z
" clip-path="url(#p932be2469c)" style="fill: #808080; fill-opacity: 0.5; stroke: #ffffff; stroke-width: 0.212193; stroke-linejoin: miter"/>
   </g>
   <g id="patch_120">
    <path d="M 342.044281 297.9 
L 344.339221 297.9 
L 344.339221 296.021997 
L 342.044281 296.021997 
z
" clip-path="url(#p932be2469c)" style="fill: #808080; fill-opacity: 0.5; stroke: #ffffff; stroke-width: 0.212193; stroke-linejoin: miter"/>
   </g>
   <g id="patch_121">
    <path d="M 344.339221 297.9 
L 346.634161 297.9 
L 346.634161 293.517993 
L 344.339221 293.517993 
z
" clip-path="url(#p932be2469c)" style="fill: #808080; fill-opacity: 0.5; stroke: #ffffff; stroke-width: 0.212193; stroke-linejoin: miter"/>
   </g>
   <g id="patch_122">
    <path d="M 346.634161 297.9 
L 348.929101 297.9 
L 348.929101 292.265991 
L 346.634161 292.265991 
z
" clip-path="url(#p932be2469c)" style="fill: #808080; fill-opacity: 0.5; stroke: #ffffff; stroke-width: 0.212193; stroke-linejoin: miter"/>
   </g>
   <g id="patch_123">
    <path d="M 348.929101 297.9 
L 351.224041 297.9 
L 351.224041 296.960999 
L 348.929101 296.960999 
z
" clip-path="url(#p932be2469c)" style="fill: #808080; fill-opacity: 0.5; stroke: #ffffff; stroke-width: 0.212193; stroke-linejoin: miter"/>
   </g>
   <g id="patch_124">
    <path d="M 351.224041 297.9 
L 353.518981 297.9 
L 353.518981 297.9 
L 351.224041 297.9 
z
" clip-path="url(#p932be2469c)" style="fill: #808080; fill-opacity: 0.5; stroke: #ffffff; stroke-width: 0.212193; stroke-linejoin: miter"/>
   </g>
   <g id="patch_125">
    <path d="M 353.518981 297.9 
L 355.813921 297.9 
L 355.813921 297.587 
L 353.518981 297.587 
z
" clip-path="url(#p932be2469c)" style="fill: #808080; fill-opacity: 0.5; stroke: #ffffff; stroke-width: 0.212193; stroke-linejoin: miter"/>
   </g>
   <g id="patch_126">
    <path d="M 355.813921 297.9 
L 358.108861 297.9 
L 358.108861 293.517993 
L 355.813921 293.517993 
z
" clip-path="url(#p932be2469c)" style="fill: #808080; fill-opacity: 0.5; stroke: #ffffff; stroke-width: 0.212193; stroke-linejoin: miter"/>
   </g>
   <g id="patch_127">
    <path d="M 358.108861 297.9 
L 360.403801 297.9 
L 360.403801 297.9 
L 358.108861 297.9 
z
" clip-path="url(#p932be2469c)" style="fill: #808080; fill-opacity: 0.5; stroke: #ffffff; stroke-width: 0.212193; stroke-linejoin: miter"/>
   </g>
   <g id="patch_128">
    <path d="M 360.403801 297.9 
L 362.698741 297.9 
L 362.698741 296.334998 
L 360.403801 296.334998 
z
" clip-path="url(#p932be2469c)" style="fill: #808080; fill-opacity: 0.5; stroke: #ffffff; stroke-width: 0.212193; stroke-linejoin: miter"/>
   </g>
   <g id="patch_129">
    <path d="M 362.698741 297.9 
L 364.993682 297.9 
L 364.993682 297.9 
L 362.698741 297.9 
z
" clip-path="url(#p932be2469c)" style="fill: #808080; fill-opacity: 0.5; stroke: #ffffff; stroke-width: 0.212193; stroke-linejoin: miter"/>
   </g>
   <g id="patch_130">
    <path d="M 364.993682 297.9 
L 367.288622 297.9 
L 367.288622 297.587 
L 364.993682 297.587 
z
" clip-path="url(#p932be2469c)" style="fill: #808080; fill-opacity: 0.5; stroke: #ffffff; stroke-width: 0.212193; stroke-linejoin: miter"/>
   </g>
   <g id="patch_131">
    <path d="M 367.288622 297.9 
L 369.583562 297.9 
L 369.583562 297.9 
L 367.288622 297.9 
z
" clip-path="url(#p932be2469c)" style="fill: #808080; fill-opacity: 0.5; stroke: #ffffff; stroke-width: 0.212193; stroke-linejoin: miter"/>
   </g>
   <g id="patch_132">
    <path d="M 369.583562 297.9 
L 371.878502 297.9 
L 371.878502 297.9 
L 369.583562 297.9 
z
" clip-path="url(#p932be2469c)" style="fill: #808080; fill-opacity: 0.5; stroke: #ffffff; stroke-width: 0.212193; stroke-linejoin: miter"/>
   </g>
   <g id="patch_133">
    <path d="M 371.878502 297.9 
L 374.173442 297.9 
L 374.173442 295.708997 
L 371.878502 295.708997 
z
" clip-path="url(#p932be2469c)" style="fill: #808080; fill-opacity: 0.5; stroke: #ffffff; stroke-width: 0.212193; stroke-linejoin: miter"/>
   </g>
   <g id="patch_134">
    <path d="M 374.173442 297.9 
L 376.468382 297.9 
L 376.468382 297.9 
L 374.173442 297.9 
z
" clip-path="url(#p932be2469c)" style="fill: #808080; fill-opacity: 0.5; stroke: #ffffff; stroke-width: 0.212193; stroke-linejoin: miter"/>
   </g>
   <g id="patch_135">
    <path d="M 376.468382 297.9 
L 378.763322 297.9 
L 378.763322 297.587 
L 376.468382 297.587 
z
" clip-path="url(#p932be2469c)" style="fill: #808080; fill-opacity: 0.5; stroke: #ffffff; stroke-width: 0.212193; stroke-linejoin: miter"/>
   </g>
   <g id="patch_136">
    <path d="M 378.763322 297.9 
L 381.058262 297.9 
L 381.058262 296.647998 
L 378.763322 296.647998 
z
" clip-path="url(#p932be2469c)" style="fill: #808080; fill-opacity: 0.5; stroke: #ffffff; stroke-width: 0.212193; stroke-linejoin: miter"/>
   </g>
   <g id="patch_137">
    <path d="M 381.058262 297.9 
L 383.353202 297.9 
L 383.353202 297.9 
L 381.058262 297.9 
z
" clip-path="url(#p932be2469c)" style="fill: #808080; fill-opacity: 0.5; stroke: #ffffff; stroke-width: 0.212193; stroke-linejoin: miter"/>
   </g>
   <g id="patch_138">
    <path d="M 383.353202 297.9 
L 385.648142 297.9 
L 385.648142 296.960999 
L 383.353202 296.960999 
z
" clip-path="url(#p932be2469c)" style="fill: #808080; fill-opacity: 0.5; stroke: #ffffff; stroke-width: 0.212193; stroke-linejoin: miter"/>
   </g>
   <g id="patch_139">
    <path d="M 385.648142 297.9 
L 387.943082 297.9 
L 387.943082 296.960999 
L 385.648142 296.960999 
z
" clip-path="url(#p932be2469c)" style="fill: #808080; fill-opacity: 0.5; stroke: #ffffff; stroke-width: 0.212193; stroke-linejoin: miter"/>
   </g>
   <g id="patch_140">
    <path d="M 387.943082 297.9 
L 390.238022 297.9 
L 390.238022 297.9 
L 387.943082 297.9 
z
" clip-path="url(#p932be2469c)" style="fill: #808080; fill-opacity: 0.5; stroke: #ffffff; stroke-width: 0.212193; stroke-linejoin: miter"/>
   </g>
   <g id="patch_141">
    <path d="M 390.238022 297.9 
L 392.532962 297.9 
L 392.532962 297.9 
L 390.238022 297.9 
z
" clip-path="url(#p932be2469c)" style="fill: #808080; fill-opacity: 0.5; stroke: #ffffff; stroke-width: 0.212193; stroke-linejoin: miter"/>
   </g>
   <g id="patch_142">
    <path d="M 392.532962 297.9 
L 394.827903 297.9 
L 394.827903 297.273999 
L 392.532962 297.273999 
z
" clip-path="url(#p932be2469c)" style="fill: #808080; fill-opacity: 0.5; stroke: #ffffff; stroke-width: 0.212193; stroke-linejoin: miter"/>
   </g>
   <g id="patch_143">
    <path d="M 394.827903 297.9 
L 397.122843 297.9 
L 397.122843 297.9 
L 394.827903 297.9 
z
" clip-path="url(#p932be2469c)" style="fill: #808080; fill-opacity: 0.5; stroke: #ffffff; stroke-width: 0.212193; stroke-linejoin: miter"/>
   </g>
   <g id="patch_144">
    <path d="M 397.122843 297.9 
L 399.417783 297.9 
L 399.417783 296.647998 
L 397.122843 296.647998 
z
" clip-path="url(#p932be2469c)" style="fill: #808080; fill-opacity: 0.5; stroke: #ffffff; stroke-width: 0.212193; stroke-linejoin: miter"/>
   </g>
   <g id="patch_145">
    <path d="M 399.417783 297.9 
L 401.712723 297.9 
L 401.712723 297.9 
L 399.417783 297.9 
z
" clip-path="url(#p932be2469c)" style="fill: #808080; fill-opacity: 0.5; stroke: #ffffff; stroke-width: 0.212193; stroke-linejoin: miter"/>
   </g>
   <g id="patch_146">
    <path d="M 401.712723 297.9 
L 404.007663 297.9 
L 404.007663 297.587 
L 401.712723 297.587 
z
" clip-path="url(#p932be2469c)" style="fill: #808080; fill-opacity: 0.5; stroke: #ffffff; stroke-width: 0.212193; stroke-linejoin: miter"/>
   </g>
   <g id="patch_147">
    <path d="M 404.007663 297.9 
L 406.302603 297.9 
L 406.302603 296.334998 
L 404.007663 296.334998 
z
" clip-path="url(#p932be2469c)" style="fill: #808080; fill-opacity: 0.5; stroke: #ffffff; stroke-width: 0.212193; stroke-linejoin: miter"/>
   </g>
   <g id="patch_148">
    <path d="M 406.302603 297.9 
L 408.597543 297.9 
L 408.597543 296.960999 
L 406.302603 296.960999 
z
" clip-path="url(#p932be2469c)" style="fill: #808080; fill-opacity: 0.5; stroke: #ffffff; stroke-width: 0.212193; stroke-linejoin: miter"/>
   </g>
   <g id="patch_149">
    <path d="M 408.597543 297.9 
L 410.892483 297.9 
L 410.892483 297.273999 
L 408.597543 297.273999 
z
" clip-path="url(#p932be2469c)" style="fill: #808080; fill-opacity: 0.5; stroke: #ffffff; stroke-width: 0.212193; stroke-linejoin: miter"/>
   </g>
   <g id="patch_150">
    <path d="M 410.892483 297.9 
L 413.187423 297.9 
L 413.187423 297.587 
L 410.892483 297.587 
z
" clip-path="url(#p932be2469c)" style="fill: #808080; fill-opacity: 0.5; stroke: #ffffff; stroke-width: 0.212193; stroke-linejoin: miter"/>
   </g>
   <g id="patch_151">
    <path d="M 413.187423 297.9 
L 415.482363 297.9 
L 415.482363 297.587 
L 413.187423 297.587 
z
" clip-path="url(#p932be2469c)" style="fill: #808080; fill-opacity: 0.5; stroke: #ffffff; stroke-width: 0.212193; stroke-linejoin: miter"/>
   </g>
   <g id="patch_152">
    <path d="M 415.482363 297.9 
L 417.777303 297.9 
L 417.777303 297.587 
L 415.482363 297.587 
z
" clip-path="url(#p932be2469c)" style="fill: #808080; fill-opacity: 0.5; stroke: #ffffff; stroke-width: 0.212193; stroke-linejoin: miter"/>
   </g>
   <g id="patch_153">
    <path d="M 417.777303 297.9 
L 420.072243 297.9 
L 420.072243 297.9 
L 417.777303 297.9 
z
" clip-path="url(#p932be2469c)" style="fill: #808080; fill-opacity: 0.5; stroke: #ffffff; stroke-width: 0.212193; stroke-linejoin: miter"/>
   </g>
   <g id="patch_154">
    <path d="M 420.072243 297.9 
L 422.367184 297.9 
L 422.367184 296.960999 
L 420.072243 296.960999 
z
" clip-path="url(#p932be2469c)" style="fill: #808080; fill-opacity: 0.5; stroke: #ffffff; stroke-width: 0.212193; stroke-linejoin: miter"/>
   </g>
   <g id="patch_155">
    <path d="M 422.367184 297.9 
L 424.662124 297.9 
L 424.662124 297.587 
L 422.367184 297.587 
z
" clip-path="url(#p932be2469c)" style="fill: #808080; fill-opacity: 0.5; stroke: #ffffff; stroke-width: 0.212193; stroke-linejoin: miter"/>
   </g>
   <g id="line2d_1">
    <path d="M 196.278169 297.9 
L 196.278169 12.96 
" clip-path="url(#p932be2469c)" style="fill: none; stroke: #2d5f8b; stroke-width: 1.5; stroke-linecap: round"/>
   </g>
   <g id="patch_156">
    <path d="M 55.98 297.9 
L 55.98 12.96 
" style="fill: none; stroke: #262626; stroke-width: 1.25; stroke-linejoin: miter; stroke-linecap: square"/>
   </g>
   <g id="patch_157">
    <path d="M 442.218415 297.9 
L 442.218415 12.96 
" style="fill: none; stroke: #262626; stroke-width: 1.25; stroke-linejoin: miter; stroke-linecap: square"/>
   </g>
   <g id="patch_158">
    <path d="M 55.98 297.9 
L 442.218415 297.9 
" style="fill: none; stroke: #262626; stroke-width: 1.25; stroke-linejoin: miter; stroke-linecap: square"/>
   </g>
   <g id="patch_159">
    <path d="M 55.98 12.96 
L 442.218415 12.96 
" style="fill: none; stroke: #262626; stroke-width: 1.25; stroke-linejoin: miter; stroke-linecap: square"/>
   </g>
   <g id="legend_1">
    <g id="patch_160">
     <path d="M 307.607634 52.879687 
L 434.518415 52.879687 
Q 436.718415 52.879687 436.718415 50.679688 
L 436.718415 20.66 
Q 436.718415 18.46 434.518415 18.46 
L 307.607634 18.46 
Q 305.407634 18.46 305.407634 20.66 
L 305.407634 50.679688 
Q 305.407634 52.879687 307.607634 52.879687 
z
" style="fill: #ffffff; opacity: 0.8; stroke: #cccccc; stroke-linejoin: miter"/>
    </g>
    <g id="line2d_2">
     <path d="M 309.807634 26.883594 
L 320.807634 26.883594 
L 331.807634 26.883594 
" style="fill: none; stroke: #2d5f8b; stroke-width: 1.5; stroke-linecap: round"/>
    </g>
    <g id="text_15">
     <!-- Observed distance -->
     <g style="fill: #262626" transform="translate(340.607634 30.733594) scale(0.11 -0.11)">
      <defs>
       <path id="ArialMT-4f" d="M 309 2231 
Q 309 3372 921 4017 
Q 1534 4663 2503 4663 
Q 3138 4663 3647 4359 
Q 4156 4056 4423 3514 
Q 4691 2972 4691 2284 
Q 4691 1588 4409 1038 
Q 4128 488 3612 205 
Q 3097 -78 2500 -78 
Q 1853 -78 1343 234 
Q 834 547 571 1087 
Q 309 1628 309 2231 
z
M 934 2222 
Q 934 1394 1379 917 
Q 1825 441 2497 441 
Q 3181 441 3623 922 
Q 4066 1403 4066 2288 
Q 4066 2847 3877 3264 
Q 3688 3681 3323 3911 
Q 2959 4141 2506 4141 
Q 1863 4141 1398 3698 
Q 934 3256 934 2222 
z
" transform="scale(0.015625)"/>
       <path id="ArialMT-62" d="M 941 0 
L 419 0 
L 419 4581 
L 981 4581 
L 981 2947 
Q 1338 3394 1891 3394 
Q 2197 3394 2470 3270 
Q 2744 3147 2920 2923 
Q 3097 2700 3197 2384 
Q 3297 2069 3297 1709 
Q 3297 856 2875 390 
Q 2453 -75 1863 -75 
Q 1275 -75 941 416 
L 941 0 
z
M 934 1684 
Q 934 1088 1097 822 
Q 1363 388 1816 388 
Q 2184 388 2453 708 
Q 2722 1028 2722 1663 
Q 2722 2313 2464 2622 
Q 2206 2931 1841 2931 
Q 1472 2931 1203 2611 
Q 934 2291 934 1684 
z
" transform="scale(0.015625)"/>
       <path id="ArialMT-72" d="M 416 0 
L 416 3319 
L 922 3319 
L 922 2816 
Q 1116 3169 1280 3281 
Q 1444 3394 1641 3394 
Q 1925 3394 2219 3213 
L 2025 2691 
Q 1819 2813 1613 2813 
Q 1428 2813 1281 2702 
Q 1134 2591 1072 2394 
Q 978 2094 978 1738 
L 978 0 
L 416 0 
z
" transform="scale(0.015625)"/>
       <path id="ArialMT-76" d="M 1344 0 
L 81 3319 
L 675 3319 
L 1388 1331 
Q 1503 1009 1600 663 
Q 1675 925 1809 1294 
L 2547 3319 
L 3125 3319 
L 1869 0 
L 1344 0 
z
" transform="scale(0.015625)"/>
      </defs>
      <use xlink:href="#ArialMT-4f"/>
      <use xlink:href="#ArialMT-62" transform="translate(77.783203 0)"/>
      <use xlink:href="#ArialMT-73" transform="translate(133.398438 0)"/>
      <use xlink:href="#ArialMT-65" transform="translate(183.398438 0)"/>
      <use xlink:href="#ArialMT-72" transform="translate(239.013672 0)"/>
      <use xlink:href="#ArialMT-76" transform="translate(272.314453 0)"/>
      <use xlink:href="#ArialMT-65" transform="translate(322.314453 0)"/>
      <use xlink:href="#ArialMT-64" transform="translate(377.929688 0)"/>
      <use xlink:href="#ArialMT-20" transform="translate(433.544922 0)"/>
      <use xlink:href="#ArialMT-64" transform="translate(461.328125 0)"/>
      <use xlink:href="#ArialMT-69" transform="translate(516.943359 0)"/>
      <use xlink:href="#ArialMT-73" transform="translate(539.160156 0)"/>
      <use xlink:href="#ArialMT-74" transform="translate(589.160156 0)"/>
      <use xlink:href="#ArialMT-61" transform="translate(616.943359 0)"/>
      <use xlink:href="#ArialMT-6e" transform="translate(672.558594 0)"/>
      <use xlink:href="#ArialMT-63" transform="translate(728.173828 0)"/>
      <use xlink:href="#ArialMT-65" transform="translate(778.173828 0)"/>
     </g>
    </g>
    <g id="patch_161">
     <path d="M 309.807634 46.293438 
L 331.807634 46.293438 
L 331.807634 38.593438 
L 309.807634 38.593438 
z
" style="fill: #808080; fill-opacity: 0.5; stroke: #ffffff; stroke-width: 0.212193; stroke-linejoin: miter"/>
    </g>
    <g id="text_16">
     <!-- Null distribution -->
     <g style="fill: #262626" transform="translate(340.607634 46.293438) scale(0.11 -0.11)">
      <defs>
       <path id="ArialMT-4e" d="M 488 0 
L 488 4581 
L 1109 4581 
L 3516 984 
L 3516 4581 
L 4097 4581 
L 4097 0 
L 3475 0 
L 1069 3600 
L 1069 0 
L 488 0 
z
" transform="scale(0.015625)"/>
      </defs>
      <use xlink:href="#ArialMT-4e"/>
      <use xlink:href="#ArialMT-75" transform="translate(72.216797 0)"/>
      <use xlink:href="#ArialMT-6c" transform="translate(127.832031 0)"/>
      <use xlink:href="#ArialMT-6c" transform="translate(150.048828 0)"/>
      <use xlink:href="#ArialMT-20" transform="translate(172.265625 0)"/>
      <use xlink:href="#ArialMT-64" transform="translate(200.048828 0)"/>
      <use xlink:href="#ArialMT-69" transform="translate(255.664062 0)"/>
      <use xlink:href="#ArialMT-73" transform="translate(277.880859 0)"/>
      <use xlink:href="#ArialMT-74" transform="translate(327.880859 0)"/>
      <use xlink:href="#ArialMT-72" transform="translate(355.664062 0)"/>
      <use xlink:href="#ArialMT-69" transform="translate(388.964844 0)"/>
      <use xlink:href="#ArialMT-62" transform="translate(411.181641 0)"/>
      <use xlink:href="#ArialMT-75" transform="translate(466.796875 0)"/>
      <use xlink:href="#ArialMT-74" transform="translate(522.412109 0)"/>
      <use xlink:href="#ArialMT-69" transform="translate(550.195312 0)"/>
      <use xlink:href="#ArialMT-6f" transform="translate(572.412109 0)"/>
      <use xlink:href="#ArialMT-6e" transform="translate(628.027344 0)"/>
     </g>
    </g>
   </g>
  </g>
 </g>
 <defs>
  <clipPath id="p932be2469c">
   <rect x="55.98" y="12.96" width="386.238415" height="284.94"/>
  </clipPath>
 </defs>
</svg>
